G04 --- HEADER BEGIN --- *
G04 #@! TF.GenerationSoftware,LibrePCB,LibrePCB,2.0.1*
G04 #@! TF.CreationDate,2026-03-28T15:49:46*
G04 #@! TF.ProjectId,prueba1,d640c6f1-ca42-4546-a4e6-45f566199c47,v1*
G04 #@! TF.Part,Single*
G04 #@! TF.SameCoordinates*
G04 #@! TF.FileFunction,Soldermask,Top*
G04 #@! TF.FilePolarity,Negative*
%FSLAX66Y66*%
%MOMM*%
G01*
G75*
G04 --- HEADER END --- *
G04 --- APERTURE LIST BEGIN --- *
%AMROUNDEDRECT10*20,1,1.6,-0.7,0.0,0.7,0.0,0.0*20,1,1.4,-0.8,0.0,0.8,0.0,0.0*1,1,0.2,-0.7,0.7*1,1,0.2,0.7,0.7*1,1,0.2,0.7,-0.7*1,1,0.2,-0.7,-0.7*%
%ADD10ROUNDEDRECT10*%
%ADD11C,1.6*%
%ADD12O,2.39X1.787*%
%AMROUNDEDRECT13*20,1,1.787,-1.095,0.0,1.095,0.0,0.0*20,1,1.587,-1.195,0.0,1.195,0.0,0.0*1,1,0.2,-1.095,0.7935*1,1,0.2,1.095,0.7935*1,1,0.2,1.095,-0.7935*1,1,0.2,-1.095,-0.7935*%
%ADD13ROUNDEDRECT13*%
%AMROUNDEDRECT14*20,1,0.95,-0.4,0.0,0.4,0.0,90.0*20,1,0.75,-0.5,0.0,0.5,0.0,90.0*1,1,0.2,-0.375,-0.4*1,1,0.2,-0.375,0.4*1,1,0.2,0.375,0.4*1,1,0.2,0.375,-0.4*%
%ADD14ROUNDEDRECT14*%
%AMROUNDEDRECT15*20,1,1.1,-0.525,0.0,0.525,0.0,0.0*20,1,0.9,-0.625,0.0,0.625,0.0,0.0*1,1,0.2,-0.525,0.45*1,1,0.2,0.525,0.45*1,1,0.2,0.525,-0.45*1,1,0.2,-0.525,-0.45*%
%ADD15ROUNDEDRECT15*%
%ADD16C,1.22*%
%AMROUNDEDRECT17*20,1,1.22,-0.51,0.0,0.51,0.0,0.0*20,1,1.02,-0.61,0.0,0.61,0.0,0.0*1,1,0.2,-0.51,0.51*1,1,0.2,0.51,0.51*1,1,0.2,0.51,-0.51*1,1,0.2,-0.51,-0.51*%
%ADD17ROUNDEDRECT17*%
%AMROUNDEDRECT18*20,1,0.8,-0.35,0.0,0.35,0.0,90.0*20,1,0.3,-0.6,0.0,0.6,0.0,90.0*1,1,0.5,-0.15,-0.35*1,1,0.5,-0.15,0.35*1,1,0.5,0.15,0.35*1,1,0.5,0.15,-0.35*%
%ADD18ROUNDEDRECT18*%
%AMROUNDEDRECT19*20,1,0.6,-0.4,0.0,0.4,0.0,90.0*20,1,0.2,-0.6,0.0,0.6,0.0,90.0*1,1,0.4,-0.1,-0.4*1,1,0.4,-0.1,0.4*1,1,0.4,0.1,0.4*1,1,0.4,0.1,-0.4*%
%ADD19ROUNDEDRECT19*%
%ADD20C,0.2*%
%ADD21C,1.2*%
G04 --- APERTURE LIST END --- *
G04 --- BOARD BEGIN --- *
D10*
G04 #@! TO.C,LED1*
X9525000Y11430000D03*
D11*
X12065000Y11430000D03*
D12*
G04 #@! TO.C,J1*
X3175000Y4445000D03*
D13*
X3175000Y6985000D03*
D14*
G04 #@! TO.C,R1*
X1765000Y11430000D03*
X3315000Y11430000D03*
D15*
G04 #@! TO.C,C1*
X7175000Y11430000D03*
X5525000Y11430000D03*
D16*
G04 #@! TO.C,R3*
X21590000Y11430000D03*
D17*
X13970000Y11430000D03*
D18*
G04 #@! TO.C,U3*
X7505000Y5250000D03*
D19*
X8255000Y5250000D03*
D18*
X7505000Y7450000D03*
X9005000Y7450000D03*
X9005000Y5250000D03*
D20*
G04 #@! TD*
X13335000Y7350000D02*
X13335000Y5850000D01*
X13335000Y7278333D02*
X13478333Y7350000D01*
X13763333Y7350000D01*
X13906667Y7278333D01*
X13978333Y7206667D01*
X14050000Y7065000D01*
X14050000Y6635000D01*
X13978333Y6493333D01*
X13906667Y6421667D01*
X13763333Y6350000D01*
X13478333Y6350000D01*
X13335000Y6421667D01*
X14550000Y6350000D02*
X14550000Y7350000D01*
X14550000Y7065000D02*
X14621667Y7206667D01*
X14693333Y7278333D01*
X14835000Y7350000D01*
X14978333Y7350000D01*
X16121666Y7350000D02*
X16121666Y6350000D01*
X15478333Y7350000D02*
X15478333Y6565000D01*
X15550000Y6421667D01*
X15693333Y6350000D01*
X15906666Y6350000D01*
X16050000Y6421667D01*
X16121666Y6493333D01*
X17264999Y6421667D02*
X17121666Y6350000D01*
X16836666Y6350000D01*
X16693333Y6421667D01*
X16621666Y6565000D01*
X16621666Y7135000D01*
X16693333Y7278333D01*
X16836666Y7350000D01*
X17121666Y7350000D01*
X17264999Y7278333D01*
X17336666Y7135000D01*
X17336666Y6993333D01*
X16621666Y6850000D01*
X17836666Y6350000D02*
X17836666Y7850000D01*
X17836666Y7278333D02*
X17979999Y7350000D01*
X18264999Y7350000D01*
X18408333Y7278333D01*
X18479999Y7206667D01*
X18551666Y7065000D01*
X18551666Y6635000D01*
X18479999Y6493333D01*
X18408333Y6421667D01*
X18264999Y6350000D01*
X17979999Y6350000D01*
X17836666Y6421667D01*
X19766666Y6350000D02*
X19766666Y7135000D01*
X19694999Y7278333D01*
X19551666Y7350000D01*
X19266666Y7350000D01*
X19123333Y7278333D01*
X19766666Y6421667D02*
X19623333Y6350000D01*
X19266666Y6350000D01*
X19123333Y6421667D01*
X19051666Y6565000D01*
X19051666Y6706667D01*
X19123333Y6850000D01*
X19266666Y6921667D01*
X19623333Y6921667D01*
X19766666Y6993333D01*
X21123333Y6350000D02*
X20266666Y6350000D01*
X20694999Y6350000D02*
X20694999Y7850000D01*
X20551666Y7635000D01*
X20409999Y7493333D01*
X20266666Y7421667D01*
D21*
X1270000Y15240000D03*
X1270000Y1270000D03*
X21590000Y15240000D03*
X21590000Y1270000D03*
G04 --- BOARD END --- *
G04 #@! TF.MD5,f6c65eae32def76478edf3d986678560*
M02*
