G04 --- HEADER BEGIN --- *
G04 #@! TF.GenerationSoftware,LibrePCB,LibrePCB,2.0.1*
G04 #@! TF.CreationDate,2026-03-28T15:49:46*
G04 #@! TF.ProjectId,prueba1,d640c6f1-ca42-4546-a4e6-45f566199c47,v1*
G04 #@! TF.Part,Single*
G04 #@! TF.SameCoordinates*
G04 #@! TF.FileFunction,Copper,L1,Top*
G04 #@! TF.FilePolarity,Positive*
%FSLAX66Y66*%
%MOMM*%
G01*
G75*
G04 --- HEADER END --- *
G04 --- APERTURE LIST BEGIN --- *
G04 #@! TA.AperFunction,ComponentPad*
%ADD10R,1.4X1.4*%
%ADD11C,1.4*%
%ADD12O,2.19X1.587*%
%ADD13R,2.19X1.587*%
G04 #@! TA.AperFunction,SMDPad,CuDef*
%ADD14R,0.75X0.8*%
%ADD15R,1.05X0.9*%
G04 #@! TA.AperFunction,ComponentPad*
%ADD16C,1.02*%
%ADD17R,1.02X1.02*%
G04 #@! TA.AperFunction,SMDPad,CuDef*
%AMROUNDEDRECT18*20,1,0.6,-0.35,0.0,0.35,0.0,90.0*20,1,0.3,-0.5,0.0,0.5,0.0,90.0*1,1,0.3,-0.15,-0.35*1,1,0.3,-0.15,0.35*1,1,0.3,0.15,0.35*1,1,0.3,0.15,-0.35*%
%ADD18ROUNDEDRECT18*%
%AMROUNDEDRECT19*20,1,0.4,-0.4,0.0,0.4,0.0,90.0*20,1,0.2,-0.5,0.0,0.5,0.0,90.0*1,1,0.2,-0.1,-0.4*1,1,0.2,-0.1,0.4*1,1,0.2,0.1,0.4*1,1,0.2,0.1,-0.4*%
%ADD19ROUNDEDRECT19*%
G04 #@! TA.AperFunction,Conductor*
%ADD20C,0.5*%
G04 #@! TA.AperFunction,ViaPad*
%ADD21C,0.7*%
G04 #@! TA.AperFunction,Conductor*
%ADD22C,0.01*%
G04 #@! TD*
G04 --- APERTURE LIST END --- *
G04 --- BOARD BEGIN --- *
D10*
G04 #@! TO.N,GND*
G04 #@! TO.C,LED1*
G04 #@! TO.P,LED1,C,C*
X9525000Y11430000D03*
D11*
G04 #@! TO.N,N5*
G04 #@! TO.P,LED1,A,A*
X12065000Y11430000D03*
D12*
G04 #@! TO.N,GND*
G04 #@! TO.C,J1*
G04 #@! TO.P,J1,2,2*
X3175000Y4445000D03*
D13*
G04 #@! TO.N,VCC*
G04 #@! TO.P,J1,1,1*
X3175000Y6985000D03*
D14*
G04 #@! TO.N,N6*
G04 #@! TO.C,R1*
G04 #@! TO.P,R1,2,2*
X1765000Y11430000D03*
G04 #@! TO.N,N1*
G04 #@! TO.P,R1,1,1*
X3315000Y11430000D03*
D15*
G04 #@! TO.N,GND*
G04 #@! TO.C,C1*
G04 #@! TO.P,C1,2,2*
X7175000Y11430000D03*
G04 #@! TO.N,N1*
G04 #@! TO.P,C1,1,1*
X5525000Y11430000D03*
D16*
G04 #@! TO.N,N6*
G04 #@! TO.C,R3*
G04 #@! TO.P,R3,2,2*
X21590000Y11430000D03*
D17*
G04 #@! TO.N,N5*
G04 #@! TO.P,R3,1,1*
X13970000Y11430000D03*
D18*
G04 #@! TO.N,N/C*
G04 #@! TO.C,U3*
G04 #@! TO.P,U3,1*
X7505000Y5250000D03*
D19*
G04 #@! TO.N,N1*
G04 #@! TO.P,U3,2,IN*
X8255000Y5250000D03*
D18*
G04 #@! TO.N,VCC*
G04 #@! TO.P,U3,5,V+*
X7505000Y7450000D03*
G04 #@! TO.N,N6*
G04 #@! TO.P,U3,4,OUT*
X9005000Y7450000D03*
G04 #@! TO.N,GND*
G04 #@! TO.P,U3,3,V-*
X9005000Y5250000D03*
D20*
G04 #@! TD.C*
G04 #@! TD.P*
G04 #@! TO.N,VCC*
X3175000Y6985000D02*
X7040000Y6985000D01*
X7505000Y7450000D02*
X7040000Y6985000D01*
D21*
G04 #@! TO.N,N1*
X5715000Y5715000D03*
X5715000Y10160000D03*
D20*
X8255000Y4445000D02*
X7620000Y3810000D01*
X8255000Y5250000D02*
X8255000Y4445000D01*
X3315000Y11430000D02*
X3410000Y11335000D01*
X5715000Y5715000D02*
X5715000Y4445000D01*
X5525000Y11430000D02*
X5620000Y11335000D01*
X5620000Y11335000D02*
X3410000Y11335000D01*
X5620000Y11335000D02*
X5715000Y11240000D01*
X5715000Y4445000D02*
X6350000Y3810000D01*
X6350000Y3810000D02*
X7620000Y3810000D01*
X5715000Y10160000D02*
X5715000Y11240000D01*
G04 #@! TO.N,N6*
X1905000Y13970000D02*
X20955000Y13970000D01*
X4305000Y8890000D02*
X7620000Y8890000D01*
X1270000Y13335000D02*
X1905000Y13970000D01*
X9005000Y7505000D02*
X7620000Y8890000D01*
X1765000Y11430000D02*
X1270000Y12065000D01*
X1270000Y13335000D02*
X1270000Y12065000D01*
X21590000Y13335000D02*
X20955000Y13970000D01*
X9005000Y7450000D02*
X9005000Y7505000D01*
X21590000Y11430000D02*
X21590000Y13335000D01*
X1765000Y11430000D02*
X4305000Y8890000D01*
G04 #@! TO.N,N5*
X12065000Y11430000D02*
X13970000Y11430000D01*
G04 #@! TO.N,GND*
X3175000Y4445000D02*
X4445000Y2540000D01*
X9525000Y3810000D02*
X9525000Y5135000D01*
X12065000Y5715000D02*
X11457500Y5107500D01*
X12065000Y5715000D02*
X12065000Y8890000D01*
X3175000Y4445000D02*
X3175000Y4445000D01*
X9525000Y3810000D02*
X8255000Y2540000D01*
X9005000Y5250000D02*
X9525000Y5135000D01*
X9525000Y11430000D02*
X12065000Y8890000D01*
X9525000Y11430000D02*
X7175000Y11430000D01*
X11430000Y5135000D02*
X11457500Y5107500D01*
X9525000Y5135000D02*
X11430000Y5135000D01*
X8255000Y2540000D02*
X4445000Y2540000D01*
D22*
G04 #@! TA.AperFunction,Conductor*
G36*
X300000Y399999D02*
X319500Y340672D01*
X399999Y300000D01*
X1264417Y300000D01*
X1264417Y520629D01*
X1108696Y538174D01*
X1097801Y540661D01*
X949889Y592418D01*
X939832Y597261D01*
X807137Y680639D01*
X798414Y687595D01*
X687595Y798414D01*
X680639Y807137D01*
X597261Y939832D01*
X592418Y949889D01*
X540661Y1097801D01*
X538174Y1108696D01*
X520629Y1264417D01*
X520629Y1275583D01*
X538174Y1431304D01*
X540661Y1442199D01*
X592418Y1590111D01*
X597261Y1600168D01*
X680639Y1732863D01*
X687595Y1741586D01*
X798414Y1852405D01*
X807137Y1859361D01*
X939832Y1942739D01*
X949889Y1947582D01*
X1097801Y1999339D01*
X1108696Y2001826D01*
X1264417Y2019371D01*
X1275583Y2019371D01*
X1431304Y2001826D01*
X1442199Y1999339D01*
X1590111Y1947582D01*
X1600168Y1942739D01*
X1732863Y1859361D01*
X1741586Y1852405D01*
X1852405Y1741586D01*
X1859361Y1732863D01*
X1942739Y1600168D01*
X1947582Y1590111D01*
X1999339Y1442199D01*
X2001826Y1431304D01*
X2019371Y1275583D01*
X2019371Y1264417D01*
X2001826Y1108696D01*
X1999339Y1097801D01*
X1947582Y949889D01*
X1942739Y939832D01*
X1859361Y807137D01*
X1852405Y798414D01*
X1741586Y687595D01*
X1732863Y680639D01*
X1600168Y597261D01*
X1590111Y592418D01*
X1442199Y540661D01*
X1431304Y538174D01*
X1275583Y520629D01*
X1264417Y520629D01*
X1264417Y300000D01*
X2875811Y300000D01*
X2875811Y3351500D01*
X2871195Y3351714D01*
X2677175Y3369692D01*
X2668126Y3371384D01*
X2482931Y3424076D01*
X2474337Y3427406D01*
X2301987Y3513226D01*
X2294157Y3518074D01*
X2140508Y3634104D01*
X2133695Y3640316D01*
X2003982Y3782603D01*
X1998436Y3789947D01*
X1897069Y3953661D01*
X1892971Y3961891D01*
X1823417Y4141433D01*
X1820893Y4150301D01*
X1786569Y4333918D01*
X1800678Y4341046D01*
X1800678Y4545005D01*
X1795913Y4546571D01*
X1787795Y4562638D01*
X1820893Y4739699D01*
X1823417Y4748567D01*
X1892971Y4928109D01*
X1897069Y4936339D01*
X1998436Y5100053D01*
X2003982Y5107397D01*
X2084914Y5196174D01*
X2084914Y5991500D01*
X2075183Y5992458D01*
X2013123Y6004803D01*
X1995273Y6012196D01*
X1946767Y6044608D01*
X1933108Y6058267D01*
X1900696Y6106773D01*
X1893303Y6124623D01*
X1880958Y6186683D01*
X1880000Y6196414D01*
X1880000Y7773586D01*
X1880958Y7783317D01*
X1893303Y7845377D01*
X1900696Y7863227D01*
X1933108Y7911733D01*
X1946767Y7925392D01*
X1995273Y7957804D01*
X2013123Y7965197D01*
X2075183Y7977542D01*
X2084914Y7978500D01*
X4265086Y7978500D01*
X4274817Y7977542D01*
X4336877Y7965197D01*
X4354727Y7957804D01*
X4403233Y7925392D01*
X4416892Y7911733D01*
X4449304Y7863227D01*
X4456697Y7845377D01*
X4469042Y7783317D01*
X4470000Y7773586D01*
X4470000Y7534999D01*
X4489500Y7475672D01*
X4569999Y7435000D01*
X6812182Y7435000D01*
X6882892Y7464289D01*
X6975711Y7557108D01*
X7005000Y7627818D01*
X7005000Y7796069D01*
X7005615Y7803882D01*
X7020899Y7900385D01*
X7025702Y7915166D01*
X7068272Y7998715D01*
X7077408Y8011289D01*
X7143711Y8077592D01*
X7156285Y8086728D01*
X7239834Y8129298D01*
X7254615Y8134101D01*
X7351118Y8149385D01*
X7358931Y8150000D01*
X7482185Y8150000D01*
X7541512Y8169500D01*
X7577701Y8220395D01*
X7576639Y8282836D01*
X7552895Y8320709D01*
X7462893Y8410711D01*
X7392183Y8440000D01*
X4308570Y8440000D01*
X4301466Y8440508D01*
X4260885Y8446343D01*
X4253786Y8447106D01*
X4216486Y8449773D01*
X4197491Y8453906D01*
X4190345Y8455730D01*
X4171716Y8461199D01*
X4137686Y8476740D01*
X4131092Y8479471D01*
X4096040Y8492545D01*
X4078994Y8501853D01*
X4072634Y8505628D01*
X4056306Y8516121D01*
X4028042Y8540613D01*
X4022481Y8545094D01*
X3989667Y8569657D01*
X3984272Y8574332D01*
X1757893Y10800711D01*
X1687183Y10830000D01*
X1394914Y10830000D01*
X1385183Y10830958D01*
X1323123Y10843303D01*
X1305273Y10850696D01*
X1256767Y10883108D01*
X1243108Y10896767D01*
X1210696Y10945273D01*
X1203303Y10963123D01*
X1190958Y11025183D01*
X1190000Y11034914D01*
X1190000Y11401311D01*
X1168868Y11462790D01*
X917297Y11785511D01*
X913316Y11791448D01*
X909738Y11797706D01*
X898498Y11813561D01*
X896123Y11816302D01*
X888463Y11828221D01*
X875140Y11857395D01*
X870990Y11865488D01*
X855074Y11893328D01*
X849869Y11906491D01*
X849028Y11910025D01*
X842710Y11928406D01*
X841200Y11931712D01*
X837209Y11945304D01*
X832645Y11977052D01*
X830944Y11985983D01*
X823517Y12017179D01*
X822231Y12031279D01*
X822419Y12034909D01*
X821535Y12054320D01*
X820509Y12061460D01*
X820000Y12068570D01*
X820000Y13331430D01*
X820508Y13338534D01*
X826345Y13379128D01*
X827108Y13386227D01*
X829775Y13423518D01*
X833904Y13442501D01*
X835742Y13449701D01*
X841199Y13468285D01*
X856747Y13502330D01*
X859479Y13508926D01*
X872546Y13543959D01*
X881851Y13561000D01*
X885636Y13567379D01*
X896118Y13583692D01*
X920619Y13611967D01*
X925099Y13617526D01*
X949666Y13650343D01*
X954329Y13655725D01*
X1264417Y13965813D01*
X1264417Y14490629D01*
X1108696Y14508174D01*
X1097801Y14510661D01*
X949889Y14562418D01*
X939832Y14567261D01*
X807137Y14650639D01*
X798414Y14657595D01*
X687595Y14768414D01*
X680639Y14777137D01*
X597261Y14909832D01*
X592418Y14919889D01*
X540661Y15067801D01*
X538174Y15078696D01*
X520629Y15234417D01*
X520629Y15245583D01*
X538174Y15401304D01*
X540661Y15412199D01*
X592418Y15560111D01*
X597261Y15570168D01*
X680639Y15702863D01*
X687595Y15711586D01*
X798414Y15822405D01*
X807137Y15829361D01*
X939832Y15912739D01*
X949889Y15917582D01*
X1097801Y15969339D01*
X1108696Y15971826D01*
X1264417Y15989371D01*
X1275583Y15989371D01*
X1431304Y15971826D01*
X1442199Y15969339D01*
X1590111Y15917582D01*
X1600168Y15912739D01*
X1732863Y15829361D01*
X1741586Y15822405D01*
X1852405Y15711586D01*
X1859361Y15702863D01*
X1942739Y15570168D01*
X1947582Y15560111D01*
X1999339Y15412199D01*
X2001826Y15401304D01*
X2019371Y15245583D01*
X2019371Y15234417D01*
X2001826Y15078696D01*
X1999339Y15067801D01*
X1947582Y14919889D01*
X1942739Y14909832D01*
X1859361Y14777137D01*
X1852405Y14768414D01*
X1741586Y14657595D01*
X1732863Y14650639D01*
X1600168Y14567261D01*
X1590111Y14562418D01*
X1442199Y14510661D01*
X1431304Y14508174D01*
X1275583Y14490629D01*
X1264417Y14490629D01*
X1264417Y13965813D01*
X1584275Y14285671D01*
X1589657Y14290334D01*
X1622474Y14314901D01*
X1628033Y14319381D01*
X1656308Y14343882D01*
X1672621Y14354364D01*
X1679000Y14358149D01*
X1696041Y14367454D01*
X1731074Y14380521D01*
X1737670Y14383253D01*
X1771715Y14398801D01*
X1790299Y14404258D01*
X1797499Y14406096D01*
X1816482Y14410225D01*
X1853773Y14412892D01*
X1860872Y14413655D01*
X1901466Y14419492D01*
X1908570Y14420000D01*
X20951430Y14420000D01*
X20958534Y14419492D01*
X20999128Y14413655D01*
X21006227Y14412892D01*
X21043518Y14410225D01*
X21062501Y14406096D01*
X21069701Y14404258D01*
X21088285Y14398801D01*
X21122330Y14383253D01*
X21128926Y14380521D01*
X21163959Y14367454D01*
X21181000Y14358149D01*
X21187379Y14354364D01*
X21203692Y14343882D01*
X21231967Y14319381D01*
X21237526Y14314901D01*
X21270343Y14290334D01*
X21275725Y14285671D01*
X21584417Y13976979D01*
X21584417Y14490629D01*
X21428696Y14508174D01*
X21417801Y14510661D01*
X21269889Y14562418D01*
X21259832Y14567261D01*
X21127137Y14650639D01*
X21118414Y14657595D01*
X21007595Y14768414D01*
X21000639Y14777137D01*
X20917261Y14909832D01*
X20912418Y14919889D01*
X20860661Y15067801D01*
X20858174Y15078696D01*
X20840629Y15234417D01*
X20840629Y15245583D01*
X20858174Y15401304D01*
X20860661Y15412199D01*
X20912418Y15560111D01*
X20917261Y15570168D01*
X21000639Y15702863D01*
X21007595Y15711586D01*
X21118414Y15822405D01*
X21127137Y15829361D01*
X21259832Y15912739D01*
X21269889Y15917582D01*
X21417801Y15969339D01*
X21428696Y15971826D01*
X21584417Y15989371D01*
X21595583Y15989371D01*
X21751304Y15971826D01*
X21762199Y15969339D01*
X21910111Y15917582D01*
X21920168Y15912739D01*
X22052863Y15829361D01*
X22061586Y15822405D01*
X22172405Y15711586D01*
X22179361Y15702863D01*
X22262739Y15570168D01*
X22267582Y15560111D01*
X22319339Y15412199D01*
X22321826Y15401304D01*
X22339371Y15245583D01*
X22339371Y15234417D01*
X22321826Y15078696D01*
X22319339Y15067801D01*
X22267582Y14919889D01*
X22262739Y14909832D01*
X22179361Y14777137D01*
X22172405Y14768414D01*
X22061586Y14657595D01*
X22052863Y14650639D01*
X21920168Y14567261D01*
X21910111Y14562418D01*
X21762199Y14510661D01*
X21751304Y14508174D01*
X21595583Y14490629D01*
X21584417Y14490629D01*
X21584417Y13976979D01*
X21905671Y13655725D01*
X21910334Y13650343D01*
X21934901Y13617526D01*
X21939381Y13611967D01*
X21963882Y13583692D01*
X21974364Y13567379D01*
X21978149Y13561000D01*
X21987454Y13543959D01*
X22000521Y13508926D01*
X22003253Y13502330D01*
X22018801Y13468285D01*
X22024258Y13449701D01*
X22026096Y13442501D01*
X22030225Y13423518D01*
X22032892Y13386227D01*
X22033655Y13379128D01*
X22039492Y13338534D01*
X22040000Y13331430D01*
X22040000Y12019199D01*
X22069289Y11948489D01*
X22141130Y11876648D01*
X22148086Y11867926D01*
X22226704Y11742807D01*
X22231542Y11732759D01*
X22280343Y11593295D01*
X22282828Y11582405D01*
X22299371Y11435583D01*
X22299371Y11424417D01*
X22282828Y11277595D01*
X22280343Y11266705D01*
X22231542Y11127241D01*
X22226704Y11117193D01*
X22148086Y10992074D01*
X22141130Y10983352D01*
X22036648Y10878870D01*
X22027926Y10871914D01*
X21902807Y10793296D01*
X21892759Y10788458D01*
X21753295Y10739657D01*
X21742405Y10737172D01*
X21595583Y10720629D01*
X21584417Y10720629D01*
X21437595Y10737172D01*
X21426705Y10739657D01*
X21287241Y10788458D01*
X21277193Y10793296D01*
X21152074Y10871914D01*
X21143352Y10878870D01*
X21038870Y10983352D01*
X21031914Y10992074D01*
X20953296Y11117193D01*
X20948458Y11127241D01*
X20899657Y11266705D01*
X20897172Y11277595D01*
X20880629Y11424417D01*
X20880629Y11435583D01*
X20897172Y11582405D01*
X20899657Y11593295D01*
X20948458Y11732759D01*
X20953296Y11742807D01*
X21031914Y11867926D01*
X21038870Y11876648D01*
X21110711Y11948489D01*
X21140000Y12019199D01*
X21140000Y13107183D01*
X21110711Y13177893D01*
X20797893Y13490711D01*
X20727183Y13520000D01*
X2132817Y13520000D01*
X2062107Y13490711D01*
X1749289Y13177893D01*
X1720000Y13107183D01*
X1720000Y12254043D01*
X1741132Y12192563D01*
X1837828Y12068519D01*
X1916695Y12030000D01*
X2135086Y12030000D01*
X2144817Y12029042D01*
X2206877Y12016697D01*
X2224727Y12009304D01*
X2273233Y11976892D01*
X2286892Y11963233D01*
X2319304Y11914727D01*
X2326697Y11896877D01*
X2339042Y11834817D01*
X2340000Y11825086D01*
X2340000Y11532817D01*
X2369289Y11462107D01*
X2569291Y11262105D01*
X2625030Y11233943D01*
X2686608Y11244341D01*
X2730009Y11289245D01*
X2740000Y11332815D01*
X2740000Y11825086D01*
X2740958Y11834817D01*
X2753303Y11896877D01*
X2760696Y11914727D01*
X2793108Y11963233D01*
X2806767Y11976892D01*
X2855273Y12009304D01*
X2873123Y12016697D01*
X2935183Y12029042D01*
X2944914Y12030000D01*
X3685086Y12030000D01*
X3694817Y12029042D01*
X3756877Y12016697D01*
X3774727Y12009304D01*
X3823233Y11976892D01*
X3836892Y11963233D01*
X3869304Y11914727D01*
X3876699Y11896872D01*
X3882942Y11865490D01*
X3913641Y11811107D01*
X3981019Y11785000D01*
X4700493Y11785000D01*
X4759820Y11804500D01*
X4800011Y11875198D01*
X4800958Y11884819D01*
X4813303Y11946877D01*
X4820696Y11964727D01*
X4853108Y12013233D01*
X4866767Y12026892D01*
X4915273Y12059304D01*
X4933123Y12066697D01*
X4995183Y12079042D01*
X5004914Y12080000D01*
X6045086Y12080000D01*
X6054817Y12079042D01*
X6116877Y12066697D01*
X6134727Y12059304D01*
X6183233Y12026892D01*
X6196892Y12013233D01*
X6209017Y11995087D01*
X6258191Y11956592D01*
X6320615Y11954778D01*
X6381263Y12005245D01*
X6403725Y12049328D01*
X6412858Y12061899D01*
X6468101Y12117142D01*
X6480674Y12126277D01*
X6550282Y12161744D01*
X6565069Y12166548D01*
X6646118Y12179385D01*
X6653931Y12180000D01*
X7058982Y12180000D01*
X7063747Y12178434D01*
X7074995Y12156172D01*
X7074995Y11880000D01*
X6650000Y11880000D01*
X6650000Y10980000D01*
X7074995Y10980000D01*
X7074995Y10696013D01*
X7073429Y10691248D01*
X7051167Y10680000D01*
X6653931Y10680000D01*
X6646118Y10680615D01*
X6565069Y10693452D01*
X6550282Y10698256D01*
X6480674Y10733723D01*
X6468101Y10742858D01*
X6412858Y10798101D01*
X6403725Y10810672D01*
X6381263Y10854755D01*
X6336954Y10898763D01*
X6275176Y10907902D01*
X6209017Y10864913D01*
X6196892Y10846767D01*
X6194289Y10844164D01*
X6192880Y10840763D01*
X6191421Y10838579D01*
X6191855Y10838289D01*
X6165000Y10773454D01*
X6165000Y10503238D01*
X6184402Y10446081D01*
X6184047Y10445876D01*
X6185077Y10444092D01*
X6185664Y10442363D01*
X6187325Y10440198D01*
X6193821Y10428947D01*
X6243751Y10308406D01*
X6247115Y10295850D01*
X6264144Y10166502D01*
X6264144Y10153498D01*
X6247115Y10024150D01*
X6243751Y10011594D01*
X6193822Y9891055D01*
X6187324Y9879800D01*
X6107899Y9776291D01*
X6098709Y9767101D01*
X5995200Y9687676D01*
X5983945Y9681178D01*
X5863406Y9631249D01*
X5850850Y9627885D01*
X5721502Y9610856D01*
X5708498Y9610856D01*
X5579150Y9627885D01*
X5566594Y9631249D01*
X5446055Y9681178D01*
X5434800Y9687676D01*
X5331291Y9767101D01*
X5322101Y9776291D01*
X5242676Y9879800D01*
X5236178Y9891055D01*
X5186249Y10011594D01*
X5182885Y10024150D01*
X5165856Y10153498D01*
X5165856Y10166502D01*
X5182885Y10295850D01*
X5186249Y10308406D01*
X5236179Y10428947D01*
X5242675Y10440198D01*
X5244336Y10442363D01*
X5244923Y10444092D01*
X5245953Y10445876D01*
X5245598Y10446081D01*
X5265000Y10503238D01*
X5265000Y10680001D01*
X5245500Y10739328D01*
X5165001Y10780000D01*
X5004914Y10780000D01*
X4995183Y10780958D01*
X4933123Y10793303D01*
X4915273Y10800696D01*
X4866767Y10833108D01*
X4846143Y10853732D01*
X4843632Y10851221D01*
X4808094Y10879049D01*
X4774111Y10885000D01*
X3856400Y10885000D01*
X3800843Y10868147D01*
X3774727Y10850696D01*
X3756877Y10843303D01*
X3694817Y10830958D01*
X3685086Y10830000D01*
X3242815Y10830000D01*
X3183488Y10810500D01*
X3147299Y10759605D01*
X3148361Y10697164D01*
X3172105Y10659291D01*
X4462107Y9369289D01*
X4532817Y9340000D01*
X7291018Y9340000D01*
X7291018Y10680000D01*
X7286253Y10681566D01*
X7275005Y10703828D01*
X7275005Y10980000D01*
X7700000Y10980000D01*
X7700000Y11329995D01*
X7700000Y11530005D01*
X7700000Y11880000D01*
X7275005Y11880000D01*
X7275005Y12163987D01*
X7276571Y12168752D01*
X7298833Y12180000D01*
X7696069Y12180000D01*
X7703882Y12179385D01*
X7784931Y12166548D01*
X7799718Y12161744D01*
X7869326Y12126277D01*
X7881899Y12117142D01*
X7937142Y12061899D01*
X7946277Y12049326D01*
X7981744Y11979718D01*
X7986548Y11964931D01*
X7999385Y11883882D01*
X8000000Y11876069D01*
X8000000Y11546018D01*
X7998434Y11541253D01*
X7976172Y11530005D01*
X7700000Y11530005D01*
X7700000Y11329995D01*
X7983987Y11329995D01*
X7988752Y11328429D01*
X8000000Y11306167D01*
X8000000Y10983931D01*
X7999385Y10976118D01*
X7986548Y10895069D01*
X7981744Y10880282D01*
X7946277Y10810674D01*
X7937142Y10798101D01*
X7881899Y10742858D01*
X7869326Y10733723D01*
X7799718Y10698256D01*
X7784931Y10693452D01*
X7703882Y10680615D01*
X7696069Y10680000D01*
X7291018Y10680000D01*
X7291018Y9340000D01*
X7616430Y9340000D01*
X7623534Y9339492D01*
X7664128Y9333655D01*
X7671227Y9332892D01*
X7708518Y9330225D01*
X7727501Y9326096D01*
X7734701Y9324258D01*
X7753285Y9318801D01*
X7787330Y9303253D01*
X7793926Y9300521D01*
X7828959Y9287454D01*
X7846000Y9278149D01*
X7852379Y9274364D01*
X7868692Y9263882D01*
X7896967Y9239381D01*
X7902526Y9234901D01*
X7935343Y9210334D01*
X7940725Y9205671D01*
X8828931Y8317465D01*
X8828931Y10430000D01*
X8821118Y10430615D01*
X8740069Y10443452D01*
X8725282Y10448256D01*
X8655674Y10483723D01*
X8643101Y10492858D01*
X8587858Y10548101D01*
X8578723Y10560674D01*
X8543256Y10630282D01*
X8538452Y10645069D01*
X8525615Y10726118D01*
X8525000Y10733931D01*
X8525000Y11313982D01*
X8526566Y11318747D01*
X8541013Y11326046D01*
X8541013Y11530005D01*
X8536248Y11531571D01*
X8525000Y11553833D01*
X8525000Y12126069D01*
X8525615Y12133882D01*
X8538452Y12214931D01*
X8543256Y12229718D01*
X8578723Y12299326D01*
X8587858Y12311899D01*
X8643101Y12367142D01*
X8655674Y12376277D01*
X8725282Y12411744D01*
X8740069Y12416548D01*
X8821118Y12429385D01*
X8828931Y12430000D01*
X9408982Y12430000D01*
X9413747Y12428434D01*
X9424995Y12406172D01*
X9424995Y12130000D01*
X8825000Y12130000D01*
X8825000Y11530005D01*
X8541013Y11530005D01*
X8541013Y11326046D01*
X8548828Y11329995D01*
X8825000Y11329995D01*
X8825000Y10730000D01*
X9424995Y10730000D01*
X9424995Y10446013D01*
X9423429Y10441248D01*
X9401167Y10430000D01*
X8828931Y10430000D01*
X8828931Y8317465D01*
X8967107Y8179289D01*
X9037817Y8150000D01*
X9151069Y8150000D01*
X9158882Y8149385D01*
X9255385Y8134101D01*
X9270166Y8129298D01*
X9353715Y8086728D01*
X9366289Y8077592D01*
X9432592Y8011289D01*
X9441728Y7998715D01*
X9484298Y7915166D01*
X9489101Y7900385D01*
X9504385Y7803882D01*
X9505000Y7796069D01*
X9505000Y7103931D01*
X9504385Y7096118D01*
X9489101Y6999615D01*
X9484298Y6984834D01*
X9441728Y6901285D01*
X9432592Y6888711D01*
X9366289Y6822408D01*
X9353715Y6813272D01*
X9270166Y6770702D01*
X9255385Y6765899D01*
X9158882Y6750615D01*
X9151069Y6750000D01*
X8858931Y6750000D01*
X8851118Y6750615D01*
X8754615Y6765899D01*
X8739834Y6770702D01*
X8656285Y6813272D01*
X8643711Y6822408D01*
X8577408Y6888711D01*
X8568272Y6901285D01*
X8525702Y6984834D01*
X8520899Y6999615D01*
X8505615Y7096118D01*
X8505000Y7103931D01*
X8505000Y7327183D01*
X8475711Y7397893D01*
X8175709Y7697895D01*
X8119970Y7726057D01*
X8058392Y7715659D01*
X8014991Y7670755D01*
X8005000Y7627185D01*
X8005000Y7103931D01*
X8004385Y7096118D01*
X7989101Y6999615D01*
X7984298Y6984834D01*
X7941728Y6901285D01*
X7932592Y6888711D01*
X7866289Y6822408D01*
X7853715Y6813272D01*
X7770166Y6770702D01*
X7755385Y6765899D01*
X7658882Y6750615D01*
X7651069Y6750000D01*
X7482818Y6750000D01*
X7412108Y6720711D01*
X7360724Y6669327D01*
X7355342Y6664664D01*
X7322514Y6640089D01*
X7316955Y6635609D01*
X7288693Y6611120D01*
X7272376Y6600634D01*
X7265959Y6596826D01*
X7248966Y6587547D01*
X7213903Y6574469D01*
X7207309Y6571737D01*
X7173286Y6556199D01*
X7154685Y6550737D01*
X7147476Y6548897D01*
X7128520Y6544774D01*
X7091213Y6542106D01*
X7084114Y6541343D01*
X7043534Y6535508D01*
X7036430Y6535000D01*
X4569999Y6535000D01*
X4510672Y6515500D01*
X4470000Y6435001D01*
X4470000Y6196414D01*
X4469042Y6186683D01*
X4456697Y6124623D01*
X4449304Y6106773D01*
X4416892Y6058267D01*
X4403233Y6044608D01*
X4354727Y6012196D01*
X4336877Y6004803D01*
X4274817Y5992458D01*
X4265086Y5991500D01*
X2084914Y5991500D01*
X2084914Y5196174D01*
X2133695Y5249684D01*
X2140508Y5255896D01*
X2294157Y5371926D01*
X2301987Y5376774D01*
X2474337Y5462594D01*
X2482931Y5465924D01*
X2668126Y5518616D01*
X2677175Y5520308D01*
X2871195Y5538286D01*
X2875811Y5538500D01*
X3058982Y5538500D01*
X3063747Y5536934D01*
X3074995Y5514672D01*
X3074995Y5238500D01*
X2873500Y5238500D01*
X2696930Y5218605D01*
X2529213Y5159919D01*
X2378761Y5065383D01*
X2253117Y4939739D01*
X2158581Y4789287D01*
X2099895Y4621570D01*
X2091268Y4545005D01*
X1800678Y4545005D01*
X1800678Y4341046D01*
X1808493Y4344995D01*
X2091268Y4344995D01*
X2099895Y4268430D01*
X2158581Y4100713D01*
X2253117Y3950261D01*
X2378761Y3824617D01*
X2529213Y3730081D01*
X2696930Y3671395D01*
X2873500Y3651500D01*
X3074995Y3651500D01*
X3074995Y3367513D01*
X3073429Y3362748D01*
X3051167Y3351500D01*
X2875811Y3351500D01*
X2875811Y300000D01*
X3291018Y300000D01*
X3291018Y3351500D01*
X3286253Y3353066D01*
X3275005Y3375328D01*
X3275005Y3651500D01*
X3476500Y3651500D01*
X3653070Y3671395D01*
X3820787Y3730081D01*
X3971239Y3824617D01*
X4096883Y3950261D01*
X4191419Y4100713D01*
X4250105Y4268430D01*
X4258732Y4344995D01*
X4258732Y4545005D01*
X4250105Y4621570D01*
X4191419Y4789287D01*
X4096883Y4939739D01*
X3971239Y5065383D01*
X3820787Y5159919D01*
X3653070Y5218605D01*
X3476500Y5238500D01*
X3275005Y5238500D01*
X3275005Y5522487D01*
X3276571Y5527252D01*
X3298833Y5538500D01*
X3474189Y5538500D01*
X3478805Y5538286D01*
X3672825Y5520308D01*
X3681874Y5518616D01*
X3867069Y5465924D01*
X3875663Y5462594D01*
X4048013Y5376774D01*
X4055843Y5371926D01*
X4209492Y5255896D01*
X4216305Y5249684D01*
X4346018Y5107397D01*
X4351564Y5100053D01*
X4452931Y4936339D01*
X4457029Y4928109D01*
X4526583Y4748567D01*
X4529107Y4739699D01*
X4563431Y4556082D01*
X4541507Y4545005D01*
X4258732Y4545005D01*
X4258732Y4344995D01*
X4549322Y4344995D01*
X4554087Y4343429D01*
X4562205Y4327362D01*
X4529107Y4150301D01*
X4526583Y4141433D01*
X4457029Y3961891D01*
X4452931Y3953661D01*
X4351564Y3789947D01*
X4346018Y3782603D01*
X4216305Y3640316D01*
X4209492Y3634104D01*
X4055843Y3518074D01*
X4048013Y3513226D01*
X3875663Y3427406D01*
X3867069Y3424076D01*
X3681874Y3371384D01*
X3672825Y3369692D01*
X3478805Y3351714D01*
X3474189Y3351500D01*
X3291018Y3351500D01*
X3291018Y300000D01*
X6353570Y300000D01*
X6353570Y3360000D01*
X6346466Y3360508D01*
X6305872Y3366345D01*
X6298773Y3367108D01*
X6261482Y3369775D01*
X6242499Y3373904D01*
X6235299Y3375742D01*
X6216715Y3381199D01*
X6182670Y3396747D01*
X6176074Y3399479D01*
X6141041Y3412546D01*
X6124000Y3421851D01*
X6117621Y3425636D01*
X6101308Y3436118D01*
X6073033Y3460619D01*
X6067474Y3465099D01*
X6034657Y3489666D01*
X6029275Y3494329D01*
X5399329Y4124275D01*
X5394666Y4129657D01*
X5370099Y4162474D01*
X5365619Y4168033D01*
X5341118Y4196308D01*
X5330636Y4212621D01*
X5326851Y4219000D01*
X5317546Y4236041D01*
X5304479Y4271074D01*
X5301747Y4277670D01*
X5286199Y4311715D01*
X5280742Y4330299D01*
X5278904Y4337499D01*
X5274775Y4356482D01*
X5272108Y4393773D01*
X5271345Y4400872D01*
X5265508Y4441466D01*
X5265000Y4448570D01*
X5265000Y5371762D01*
X5245598Y5428919D01*
X5245953Y5429124D01*
X5244923Y5430908D01*
X5244336Y5432637D01*
X5242675Y5434802D01*
X5236179Y5446053D01*
X5186249Y5566594D01*
X5182885Y5579150D01*
X5165856Y5708498D01*
X5165856Y5721502D01*
X5182885Y5850850D01*
X5186249Y5863406D01*
X5236178Y5983945D01*
X5242676Y5995200D01*
X5322101Y6098709D01*
X5331291Y6107899D01*
X5434800Y6187324D01*
X5446055Y6193822D01*
X5566594Y6243751D01*
X5579150Y6247115D01*
X5708498Y6264144D01*
X5721502Y6264144D01*
X5850850Y6247115D01*
X5863406Y6243751D01*
X5983945Y6193822D01*
X5995200Y6187324D01*
X6098709Y6107899D01*
X6107899Y6098709D01*
X6187324Y5995200D01*
X6193822Y5983945D01*
X6243751Y5863406D01*
X6247115Y5850850D01*
X6264144Y5721502D01*
X6264144Y5708498D01*
X6247115Y5579150D01*
X6243751Y5566594D01*
X6193821Y5446053D01*
X6187325Y5434802D01*
X6185664Y5432637D01*
X6185077Y5430908D01*
X6184047Y5429124D01*
X6184402Y5428919D01*
X6165000Y5371762D01*
X6165000Y4672817D01*
X6194289Y4602107D01*
X6507107Y4289289D01*
X6577817Y4260000D01*
X7392183Y4260000D01*
X7462893Y4289289D01*
X7552895Y4379291D01*
X7581057Y4435030D01*
X7570659Y4496608D01*
X7525755Y4540009D01*
X7482185Y4550000D01*
X7358931Y4550000D01*
X7351118Y4550615D01*
X7254615Y4565899D01*
X7239834Y4570702D01*
X7156285Y4613272D01*
X7143711Y4622408D01*
X7077408Y4688711D01*
X7068272Y4701285D01*
X7025702Y4784834D01*
X7020899Y4799615D01*
X7005615Y4896118D01*
X7005000Y4903931D01*
X7005000Y5596069D01*
X7005615Y5603882D01*
X7020899Y5700385D01*
X7025702Y5715166D01*
X7068272Y5798715D01*
X7077408Y5811289D01*
X7143711Y5877592D01*
X7156285Y5886728D01*
X7239834Y5929298D01*
X7254615Y5934101D01*
X7351118Y5949385D01*
X7358931Y5950000D01*
X7651069Y5950000D01*
X7658882Y5949385D01*
X7755385Y5934101D01*
X7770166Y5929298D01*
X7853718Y5886726D01*
X7854346Y5886270D01*
X7855069Y5886038D01*
X7860725Y5883156D01*
X7861191Y5884071D01*
X7913804Y5867174D01*
X7971899Y5886269D01*
X7985675Y5896277D01*
X8055282Y5931744D01*
X8070069Y5936548D01*
X8151118Y5949385D01*
X8158931Y5950000D01*
X8351069Y5950000D01*
X8358882Y5949385D01*
X8439931Y5936548D01*
X8454717Y5931744D01*
X8458436Y5929849D01*
X8520149Y5920289D01*
X8564712Y5939613D01*
X8624805Y5985724D01*
X8636054Y5992219D01*
X8732481Y6032161D01*
X8745023Y6035522D01*
X8851761Y6049574D01*
X8858270Y6050000D01*
X8888982Y6050000D01*
X8893747Y6048434D01*
X8904995Y6026172D01*
X8904995Y5750000D01*
X8855000Y5750000D01*
X8797597Y5738582D01*
X8748934Y5706066D01*
X8716418Y5657403D01*
X8705000Y5600000D01*
X8705000Y4900000D01*
X8716418Y4842597D01*
X8748934Y4793934D01*
X8797597Y4761418D01*
X8855000Y4750000D01*
X8904995Y4750000D01*
X8904995Y4466013D01*
X8903429Y4461248D01*
X8881167Y4450000D01*
X8858270Y4450000D01*
X8851761Y4450426D01*
X8808566Y4456113D01*
X8747201Y4444523D01*
X8704679Y4398787D01*
X8695770Y4364100D01*
X8695225Y4356482D01*
X8691096Y4337499D01*
X8689258Y4330299D01*
X8683801Y4311715D01*
X8668253Y4277670D01*
X8665521Y4271074D01*
X8652454Y4236041D01*
X8643149Y4219000D01*
X8639364Y4212621D01*
X8628882Y4196308D01*
X8604381Y4168033D01*
X8599901Y4162474D01*
X8575334Y4129657D01*
X8570671Y4124275D01*
X7940725Y3494329D01*
X7935343Y3489666D01*
X7902526Y3465099D01*
X7896967Y3460619D01*
X7868692Y3436118D01*
X7852379Y3425636D01*
X7846000Y3421851D01*
X7828959Y3412546D01*
X7793926Y3399479D01*
X7787330Y3396747D01*
X7753285Y3381199D01*
X7734701Y3375742D01*
X7727501Y3373904D01*
X7708518Y3369775D01*
X7671227Y3367108D01*
X7664128Y3366345D01*
X7623534Y3360508D01*
X7616430Y3360000D01*
X6353570Y3360000D01*
X6353570Y300000D01*
X9121018Y300000D01*
X9121018Y4450000D01*
X9116253Y4451566D01*
X9105005Y4473828D01*
X9105005Y4750000D01*
X9155000Y4750000D01*
X9212403Y4761418D01*
X9261066Y4793934D01*
X9293582Y4842597D01*
X9305000Y4900000D01*
X9305000Y5149995D01*
X9305000Y5350005D01*
X9305000Y5600000D01*
X9293582Y5657403D01*
X9261066Y5706066D01*
X9212403Y5738582D01*
X9155000Y5750000D01*
X9105005Y5750000D01*
X9105005Y6033987D01*
X9106571Y6038752D01*
X9128833Y6050000D01*
X9151730Y6050000D01*
X9158239Y6049574D01*
X9264977Y6035522D01*
X9277519Y6032161D01*
X9373946Y5992219D01*
X9385200Y5985721D01*
X9467998Y5922188D01*
X9477188Y5912998D01*
X9540721Y5830200D01*
X9547219Y5818946D01*
X9587161Y5722519D01*
X9590522Y5709977D01*
X9604574Y5603239D01*
X9605000Y5596730D01*
X9605000Y5366018D01*
X9603434Y5361253D01*
X9581172Y5350005D01*
X9305000Y5350005D01*
X9305000Y5149995D01*
X9588987Y5149995D01*
X9593752Y5148429D01*
X9605000Y5126167D01*
X9605000Y4903270D01*
X9604574Y4896761D01*
X9590522Y4790023D01*
X9587161Y4777481D01*
X9547219Y4681054D01*
X9540721Y4669800D01*
X9477188Y4587002D01*
X9467998Y4577812D01*
X9385200Y4514279D01*
X9373946Y4507781D01*
X9277519Y4467839D01*
X9264977Y4464478D01*
X9158239Y4450426D01*
X9151730Y4450000D01*
X9121018Y4450000D01*
X9121018Y300000D01*
X9641018Y300000D01*
X9641018Y10430000D01*
X9636253Y10431566D01*
X9625005Y10453828D01*
X9625005Y10730000D01*
X10225000Y10730000D01*
X10225000Y11329995D01*
X10225000Y11530005D01*
X10225000Y12130000D01*
X9625005Y12130000D01*
X9625005Y12413987D01*
X9626571Y12418752D01*
X9648833Y12430000D01*
X10221069Y12430000D01*
X10228882Y12429385D01*
X10309931Y12416548D01*
X10324718Y12411744D01*
X10394326Y12376277D01*
X10406899Y12367142D01*
X10462142Y12311899D01*
X10471277Y12299326D01*
X10506744Y12229718D01*
X10511548Y12214931D01*
X10524385Y12133882D01*
X10525000Y12126069D01*
X10525000Y11546018D01*
X10523434Y11541253D01*
X10501172Y11530005D01*
X10225000Y11530005D01*
X10225000Y11329995D01*
X10508987Y11329995D01*
X10513752Y11328429D01*
X10525000Y11306167D01*
X10525000Y10733931D01*
X10524385Y10726118D01*
X10511548Y10645069D01*
X10506744Y10630282D01*
X10471277Y10560674D01*
X10462142Y10548101D01*
X10406899Y10492858D01*
X10394326Y10483723D01*
X10324718Y10448256D01*
X10309931Y10443452D01*
X10228882Y10430615D01*
X10221069Y10430000D01*
X9641018Y10430000D01*
X9641018Y300000D01*
X12059786Y300000D01*
X12059786Y10530548D01*
X11883090Y10549119D01*
X11872898Y10551286D01*
X11703918Y10606191D01*
X11694403Y10610427D01*
X11540526Y10699268D01*
X11532101Y10705389D01*
X11400064Y10824276D01*
X11393091Y10832020D01*
X11288660Y10975757D01*
X11283444Y10984791D01*
X11211180Y11147098D01*
X11207960Y11157011D01*
X11171019Y11330802D01*
X11169930Y11341162D01*
X11169930Y11518838D01*
X11171019Y11529198D01*
X11207960Y11702989D01*
X11211180Y11712902D01*
X11283444Y11875209D01*
X11288660Y11884243D01*
X11393091Y12027980D01*
X11400064Y12035724D01*
X11532101Y12154611D01*
X11540526Y12160732D01*
X11694403Y12249573D01*
X11703918Y12253809D01*
X11872898Y12308714D01*
X11883090Y12310881D01*
X12059786Y12329452D01*
X12070214Y12329452D01*
X12246910Y12310881D01*
X12257102Y12308714D01*
X12426082Y12253809D01*
X12435597Y12249573D01*
X12589474Y12160732D01*
X12597899Y12154611D01*
X12729936Y12035724D01*
X12736909Y12027980D01*
X12814474Y11921221D01*
X12895375Y11880000D01*
X13165998Y11880000D01*
X13225325Y11899500D01*
X13264076Y11960491D01*
X13273302Y12006877D01*
X13280696Y12024727D01*
X13313108Y12073233D01*
X13326767Y12086892D01*
X13375273Y12119304D01*
X13393123Y12126697D01*
X13455183Y12139042D01*
X13464914Y12140000D01*
X14475086Y12140000D01*
X14484817Y12139042D01*
X14546877Y12126697D01*
X14564727Y12119304D01*
X14613233Y12086892D01*
X14626892Y12073233D01*
X14659304Y12024727D01*
X14666697Y12006877D01*
X14679042Y11944817D01*
X14680000Y11935086D01*
X14680000Y10924914D01*
X14679042Y10915183D01*
X14666697Y10853123D01*
X14659304Y10835273D01*
X14626892Y10786767D01*
X14613233Y10773108D01*
X14564727Y10740696D01*
X14546877Y10733303D01*
X14484817Y10720958D01*
X14475086Y10720000D01*
X13464914Y10720000D01*
X13455183Y10720958D01*
X13393123Y10733303D01*
X13375273Y10740696D01*
X13326767Y10773108D01*
X13313108Y10786767D01*
X13280696Y10835273D01*
X13273302Y10853123D01*
X13264076Y10899509D01*
X13233377Y10953892D01*
X13165998Y10980000D01*
X12895375Y10980000D01*
X12814474Y10938779D01*
X12736909Y10832020D01*
X12729936Y10824276D01*
X12597899Y10705389D01*
X12589474Y10699268D01*
X12435597Y10610427D01*
X12426082Y10606191D01*
X12257102Y10551286D01*
X12246910Y10549119D01*
X12070214Y10530548D01*
X12059786Y10530548D01*
X12059786Y300000D01*
X21584417Y300000D01*
X21584417Y520629D01*
X21428696Y538174D01*
X21417801Y540661D01*
X21269889Y592418D01*
X21259832Y597261D01*
X21127137Y680639D01*
X21118414Y687595D01*
X21007595Y798414D01*
X21000639Y807137D01*
X20917261Y939832D01*
X20912418Y949889D01*
X20860661Y1097801D01*
X20858174Y1108696D01*
X20840629Y1264417D01*
X20840629Y1275583D01*
X20858174Y1431304D01*
X20860661Y1442199D01*
X20912418Y1590111D01*
X20917261Y1600168D01*
X21000639Y1732863D01*
X21007595Y1741586D01*
X21118414Y1852405D01*
X21127137Y1859361D01*
X21259832Y1942739D01*
X21269889Y1947582D01*
X21417801Y1999339D01*
X21428696Y2001826D01*
X21584417Y2019371D01*
X21595583Y2019371D01*
X21751304Y2001826D01*
X21762199Y1999339D01*
X21910111Y1947582D01*
X21920168Y1942739D01*
X22052863Y1859361D01*
X22061586Y1852405D01*
X22172405Y1741586D01*
X22179361Y1732863D01*
X22262739Y1600168D01*
X22267582Y1590111D01*
X22319339Y1442199D01*
X22321826Y1431304D01*
X22339371Y1275583D01*
X22339371Y1264417D01*
X22321826Y1108696D01*
X22319339Y1097801D01*
X22267582Y949889D01*
X22262739Y939832D01*
X22179361Y807137D01*
X22172405Y798414D01*
X22061586Y687595D01*
X22052863Y680639D01*
X21920168Y597261D01*
X21910111Y592418D01*
X21762199Y540661D01*
X21751304Y538174D01*
X21595583Y520629D01*
X21584417Y520629D01*
X21584417Y300000D01*
X22460001Y300000D01*
X22519328Y319500D01*
X22560000Y399999D01*
X22560000Y16110001D01*
X22540500Y16169328D01*
X22460001Y16210000D01*
X399999Y16210000D01*
X340672Y16190500D01*
X300000Y16110001D01*
X300000Y399999D01*
G37*
G04 --- BOARD END --- *
G04 #@! TF.MD5,575a12af611a7dfb379e06594ceb683f*
M02*
