G04 --- HEADER BEGIN --- *
G04 #@! TF.GenerationSoftware,LibrePCB,LibrePCB,2.0.1*
G04 #@! TF.CreationDate,2026-03-28T15:49:46*
G04 #@! TF.ProjectId,prueba1,d640c6f1-ca42-4546-a4e6-45f566199c47,v1*
G04 #@! TF.Part,Single*
G04 #@! TF.SameCoordinates*
G04 #@! TF.FileFunction,Legend,Top*
G04 #@! TF.FilePolarity,Positive*
%FSLAX66Y66*%
%MOMM*%
G01*
G75*
G04 --- HEADER END --- *
G04 --- APERTURE LIST BEGIN --- *
%ADD10C,0.2*%
%ADD11C,0.25*%
%ADD12C,0.15*%
%ADD13C,0.01*%
%AMROUNDEDRECT14*20,1,1.6,-0.7,0.0,0.7,0.0,0.0*20,1,1.4,-0.8,0.0,0.8,0.0,0.0*1,1,0.2,-0.7,0.7*1,1,0.2,0.7,0.7*1,1,0.2,0.7,-0.7*1,1,0.2,-0.7,-0.7*%
%ADD14ROUNDEDRECT14*%
%ADD15C,1.6*%
%ADD16O,2.39X1.787*%
%AMROUNDEDRECT17*20,1,1.787,-1.095,0.0,1.095,0.0,0.0*20,1,1.587,-1.195,0.0,1.195,0.0,0.0*1,1,0.2,-1.095,0.7935*1,1,0.2,1.095,0.7935*1,1,0.2,1.095,-0.7935*1,1,0.2,-1.095,-0.7935*%
%ADD17ROUNDEDRECT17*%
%AMROUNDEDRECT18*20,1,0.95,-0.4,0.0,0.4,0.0,90.0*20,1,0.75,-0.5,0.0,0.5,0.0,90.0*1,1,0.2,-0.375,-0.4*1,1,0.2,-0.375,0.4*1,1,0.2,0.375,0.4*1,1,0.2,0.375,-0.4*%
%ADD18ROUNDEDRECT18*%
%AMROUNDEDRECT19*20,1,1.1,-0.525,0.0,0.525,0.0,0.0*20,1,0.9,-0.625,0.0,0.625,0.0,0.0*1,1,0.2,-0.525,0.45*1,1,0.2,0.525,0.45*1,1,0.2,0.525,-0.45*1,1,0.2,-0.525,-0.45*%
%ADD19ROUNDEDRECT19*%
%ADD20C,1.22*%
%AMROUNDEDRECT21*20,1,1.22,-0.51,0.0,0.51,0.0,0.0*20,1,1.02,-0.61,0.0,0.61,0.0,0.0*1,1,0.2,-0.51,0.51*1,1,0.2,0.51,0.51*1,1,0.2,0.51,-0.51*1,1,0.2,-0.51,-0.51*%
%ADD21ROUNDEDRECT21*%
%AMROUNDEDRECT22*20,1,0.8,-0.35,0.0,0.35,0.0,90.0*20,1,0.3,-0.6,0.0,0.6,0.0,90.0*1,1,0.5,-0.15,-0.35*1,1,0.5,-0.15,0.35*1,1,0.5,0.15,0.35*1,1,0.5,0.15,-0.35*%
%ADD22ROUNDEDRECT22*%
%AMROUNDEDRECT23*20,1,0.6,-0.4,0.0,0.4,0.0,90.0*20,1,0.2,-0.6,0.0,0.6,0.0,90.0*1,1,0.4,-0.1,-0.4*1,1,0.4,-0.1,0.4*1,1,0.4,0.1,0.4*1,1,0.4,0.1,-0.4*%
%ADD23ROUNDEDRECT23*%
%ADD24C,1.2*%
G04 --- APERTURE LIST END --- *
G04 --- BOARD BEGIN --- *
D10*
G04 #@! TO.C,LED1*
X12395000Y12630000D02*
G03*
X9195000Y12630000I-1600000J-1200004D01*
G01*
X9195000Y12390000D01*
X12395000Y10230000D02*
G02*
X9195000Y10230000I-1600000J1200004D01*
G01*
X9195000Y10470000D01*
D11*
G04 #@! TO.C,J1*
X4570000Y8110000D02*
X4570000Y5985000D01*
X4300000Y5715000D01*
X4570000Y5445000D01*
X4570000Y3320000D01*
X4300000Y3050000D01*
X2050000Y3050000D01*
X1780000Y3320000D01*
X1780000Y5445000D01*
X2050000Y5715000D01*
X1780000Y5985000D01*
X1780000Y8110000D01*
X2050000Y8380000D01*
X4300000Y8380000D01*
X4570000Y8110000D01*
D12*
G04 #@! TO.C,R1*
X2715000Y11905000D02*
X2365000Y11905000D01*
X2715000Y10955000D02*
X2365000Y10955000D01*
D13*
G04 #@! TO.C,LOGO1*
G36*
X12490000Y3510000D02*
X12910000Y3510000D01*
X12910000Y3310000D01*
X12490000Y3310000D01*
X12490000Y3510000D01*
G37*
G36*
X11330000Y4870000D02*
X11530000Y4870000D01*
X11530000Y5290000D01*
X11330000Y5290000D01*
X11330000Y4870000D01*
G37*
G36*
X10930000Y4870000D02*
X11130000Y4870000D01*
X11130000Y5290000D01*
X10930000Y5290000D01*
X10930000Y4870000D01*
G37*
G36*
X10370000Y4310000D02*
X9950000Y4310000D01*
X9950000Y4110000D01*
X10370000Y4110000D01*
X10370000Y4310000D01*
G37*
G36*
X11330000Y2750000D02*
X11530000Y2750000D01*
X11530000Y2330000D01*
X11330000Y2330000D01*
X11330000Y2750000D01*
G37*
G36*
X10795000Y4657000D02*
X12065000Y4657000D01*
G02*
X12277000Y4445000I0J-212000D01*
G01*
X12277000Y3175000D01*
G02*
X12065000Y2963000I-212000J0D01*
G01*
X10795000Y2963000D01*
G02*
X10583000Y3175000I0J212000D01*
G01*
X10583000Y4275000D01*
X10798000Y4275000D01*
G03*
X10965000Y4108000I167000J0D01*
G01*
G03*
X11132000Y4275000I0J167000D01*
G01*
G03*
X10965000Y4442000I-167000J0D01*
G01*
G03*
X10798000Y4275000I0J-167000D01*
G01*
X10583000Y4275000D01*
X10583000Y4445000D01*
G02*
X10795000Y4657000I212000J0D01*
G01*
G37*
G36*
X12490000Y4310000D02*
X12910000Y4310000D01*
X12910000Y4110000D01*
X12490000Y4110000D01*
X12490000Y4310000D01*
G37*
G36*
X11730000Y4870000D02*
X11930000Y4870000D01*
X11930000Y5290000D01*
X11730000Y5290000D01*
X11730000Y4870000D01*
G37*
G36*
X10370000Y3910000D02*
X9950000Y3910000D01*
X9950000Y3710000D01*
X10370000Y3710000D01*
X10370000Y3910000D01*
G37*
G36*
X10930000Y2750000D02*
X11130000Y2750000D01*
X11130000Y2330000D01*
X10930000Y2330000D01*
X10930000Y2750000D01*
G37*
G36*
X10370000Y3510000D02*
X9950000Y3510000D01*
X9950000Y3310000D01*
X10370000Y3310000D01*
X10370000Y3510000D01*
G37*
G36*
X11730000Y2750000D02*
X11930000Y2750000D01*
X11930000Y2330000D01*
X11730000Y2330000D01*
X11730000Y2750000D01*
G37*
G36*
X12490000Y3910000D02*
X12910000Y3910000D01*
X12910000Y3710000D01*
X12490000Y3710000D01*
X12490000Y3910000D01*
G37*
D10*
X13530000Y4050000D02*
X13530000Y5050000D01*
X13863333Y4335556D01*
X14196667Y5050000D01*
X14196667Y4050000D01*
X15073334Y4050000D02*
X15073334Y4573333D01*
X15025556Y4668889D01*
X14930000Y4716667D01*
X14740000Y4716667D01*
X14644445Y4668889D01*
X15073334Y4097778D02*
X14977778Y4050000D01*
X14740000Y4050000D01*
X14644445Y4097778D01*
X14596667Y4193333D01*
X14596667Y4287778D01*
X14644445Y4383333D01*
X14740000Y4431111D01*
X14977778Y4431111D01*
X15073334Y4478889D01*
X15950001Y4050000D02*
X15950001Y5050000D01*
X15950001Y4097778D02*
X15854445Y4050000D01*
X15663334Y4050000D01*
X15568890Y4097778D01*
X15521112Y4145556D01*
X15473334Y4240000D01*
X15473334Y4526667D01*
X15521112Y4621111D01*
X15568890Y4668889D01*
X15663334Y4716667D01*
X15854445Y4716667D01*
X15950001Y4668889D01*
X16778890Y4097778D02*
X16683334Y4050000D01*
X16493334Y4050000D01*
X16397779Y4097778D01*
X16350001Y4193333D01*
X16350001Y4573333D01*
X16397779Y4668889D01*
X16493334Y4716667D01*
X16683334Y4716667D01*
X16778890Y4668889D01*
X16826668Y4573333D01*
X16826668Y4478889D01*
X16350001Y4383333D01*
X18026667Y5050000D02*
X18264445Y4050000D01*
X18455556Y4764444D01*
X18645556Y4050000D01*
X18883334Y5050000D01*
X19331112Y4050000D02*
X19331112Y4716667D01*
X19331112Y5050000D02*
X19283334Y5002222D01*
X19331112Y4954444D01*
X19378890Y5002222D01*
X19331112Y5050000D01*
X19331112Y4954444D01*
X19778890Y4716667D02*
X20160001Y4716667D01*
X19922223Y5050000D02*
X19922223Y4193333D01*
X19968890Y4097778D01*
X20064446Y4050000D01*
X20160001Y4050000D01*
X20560001Y4050000D02*
X20560001Y5050000D01*
X20988890Y4050000D02*
X20988890Y4573333D01*
X20941112Y4668889D01*
X20845557Y4716667D01*
X20703334Y4716667D01*
X20607779Y4668889D01*
X20560001Y4621111D01*
X14006667Y2570000D02*
X13530000Y2570000D01*
X13530000Y3570000D01*
X14454445Y2570000D02*
X14454445Y3236667D01*
X14454445Y3570000D02*
X14406667Y3522222D01*
X14454445Y3474444D01*
X14502223Y3522222D01*
X14454445Y3570000D01*
X14454445Y3474444D01*
X14902223Y2570000D02*
X14902223Y3570000D01*
X14902223Y3188889D02*
X14997779Y3236667D01*
X15187779Y3236667D01*
X15283334Y3188889D01*
X15331112Y3141111D01*
X15378890Y3046667D01*
X15378890Y2760000D01*
X15331112Y2665556D01*
X15283334Y2617778D01*
X15187779Y2570000D01*
X14997779Y2570000D01*
X14902223Y2617778D01*
X15778890Y2570000D02*
X15778890Y3236667D01*
X15778890Y3046667D02*
X15826668Y3141111D01*
X15874446Y3188889D01*
X15968890Y3236667D01*
X16064446Y3236667D01*
X16893335Y2617778D02*
X16797779Y2570000D01*
X16607779Y2570000D01*
X16512224Y2617778D01*
X16464446Y2713333D01*
X16464446Y3093333D01*
X16512224Y3188889D01*
X16607779Y3236667D01*
X16797779Y3236667D01*
X16893335Y3188889D01*
X16941113Y3093333D01*
X16941113Y2998889D01*
X16464446Y2903333D01*
X17341113Y2570000D02*
X17341113Y3570000D01*
X17722224Y3570000D01*
X17817780Y3522222D01*
X17864446Y3474444D01*
X17912224Y3380000D01*
X17912224Y3236667D01*
X17864446Y3141111D01*
X17817780Y3093333D01*
X17722224Y3046667D01*
X17341113Y3046667D01*
X18931113Y2665556D02*
X18883335Y2617778D01*
X18741113Y2570000D01*
X18645557Y2570000D01*
X18502224Y2617778D01*
X18407780Y2713333D01*
X18360002Y2807778D01*
X18312224Y2998889D01*
X18312224Y3141111D01*
X18360002Y3332222D01*
X18407780Y3426667D01*
X18502224Y3522222D01*
X18645557Y3570000D01*
X18741113Y3570000D01*
X18883335Y3522222D01*
X18931113Y3474444D01*
X19664446Y3093333D02*
X19807780Y3046667D01*
X19854446Y2998889D01*
X19902224Y2903333D01*
X19902224Y2760000D01*
X19854446Y2665556D01*
X19807780Y2617778D01*
X19712224Y2570000D01*
X19331113Y2570000D01*
X19331113Y3570000D01*
X19664446Y3570000D01*
X19760002Y3522222D01*
X19807780Y3474444D01*
X19854446Y3380000D01*
X19854446Y3284444D01*
X19807780Y3188889D01*
X19760002Y3141111D01*
X19664446Y3093333D01*
X19331113Y3093333D01*
D12*
G04 #@! TO.C,C1*
X6275000Y10955000D02*
X6425000Y10955000D01*
X6275000Y11905000D02*
X6425000Y11905000D01*
D13*
G04 #@! TO.C,R3*
G36*
X14680000Y11655000D02*
X15730000Y11655000D01*
X15730000Y11205000D01*
X14680000Y11205000D01*
X14680000Y11655000D01*
G37*
G36*
X20880000Y11655000D02*
X19830000Y11655000D01*
X19830000Y11205000D01*
X20880000Y11205000D01*
X20880000Y11655000D01*
G37*
D10*
X15830000Y12480000D02*
X19730000Y12480000D01*
X19730000Y10380000D01*
X15830000Y10380000D01*
X15830000Y12480000D01*
D12*
G04 #@! TO.C,U3*
X8055000Y7050000D02*
X8455000Y7050000D01*
X9330000Y6750000D02*
X9330000Y5950000D01*
X6975000Y5150000D02*
X6975000Y5950000D01*
X7180000Y5950000D01*
X7180000Y6750000D01*
D10*
G04 #@! TO.C,LED1*
X9623889Y14130000D02*
X9147222Y14130000D01*
X9147222Y15130000D01*
X10023889Y14653333D02*
X10357222Y14653333D01*
X10500556Y14130000D02*
X10023889Y14130000D01*
X10023889Y15130000D01*
X10500556Y15130000D01*
X10900556Y14130000D02*
X10900556Y15130000D01*
X11138334Y15130000D01*
X11281667Y15082222D01*
X11377223Y14986667D01*
X11423889Y14892222D01*
X11471667Y14701111D01*
X11471667Y14558889D01*
X11423889Y14367778D01*
X11377223Y14273333D01*
X11281667Y14177778D01*
X11138334Y14130000D01*
X10900556Y14130000D01*
X12442778Y14130000D02*
X11871667Y14130000D01*
X12157223Y14130000D02*
X12157223Y15130000D01*
X12061667Y14986667D01*
X11967223Y14892222D01*
X11871667Y14844444D01*
G04 #@! TO.C,J1*
X2880000Y2270000D02*
X2880000Y1555556D01*
X2832222Y1413333D01*
X2736667Y1317778D01*
X2594445Y1270000D01*
X2498889Y1270000D01*
X3851111Y1270000D02*
X3280000Y1270000D01*
X3565556Y1270000D02*
X3565556Y2270000D01*
X3470000Y2126667D01*
X3375556Y2032222D01*
X3280000Y1984444D01*
G04 #@! TO.C,R1*
X2340000Y12405000D02*
X2006667Y12881667D01*
X1768889Y12405000D02*
X1768889Y13405000D01*
X2150000Y13405000D01*
X2245556Y13357222D01*
X2292222Y13309444D01*
X2340000Y13215000D01*
X2340000Y13071667D01*
X2292222Y12976111D01*
X2245556Y12928333D01*
X2150000Y12881667D01*
X1768889Y12881667D01*
X3311111Y12405000D02*
X2740000Y12405000D01*
X3025556Y12405000D02*
X3025556Y13405000D01*
X2930000Y13261667D01*
X2835556Y13167222D01*
X2740000Y13119444D01*
G04 #@! TO.C,C1*
X6173889Y12725556D02*
X6126111Y12677778D01*
X5983889Y12630000D01*
X5888333Y12630000D01*
X5745000Y12677778D01*
X5650556Y12773333D01*
X5602778Y12867778D01*
X5555000Y13058889D01*
X5555000Y13201111D01*
X5602778Y13392222D01*
X5650556Y13486667D01*
X5745000Y13582222D01*
X5888333Y13630000D01*
X5983889Y13630000D01*
X6126111Y13582222D01*
X6173889Y13534444D01*
X7145000Y12630000D02*
X6573889Y12630000D01*
X6859445Y12630000D02*
X6859445Y13630000D01*
X6763889Y13486667D01*
X6669445Y13392222D01*
X6573889Y13344444D01*
G04 #@! TO.C,R3*
X17556111Y13080000D02*
X17222778Y13556667D01*
X16985000Y13080000D02*
X16985000Y14080000D01*
X17366111Y14080000D01*
X17461667Y14032222D01*
X17508333Y13984444D01*
X17556111Y13890000D01*
X17556111Y13746667D01*
X17508333Y13651111D01*
X17461667Y13603333D01*
X17366111Y13556667D01*
X16985000Y13556667D01*
X17956111Y14080000D02*
X18575000Y14080000D01*
X18241667Y13698889D01*
X18385000Y13698889D01*
X18479444Y13651111D01*
X18527222Y13603333D01*
X18575000Y13508889D01*
X18575000Y13270000D01*
X18527222Y13175556D01*
X18479444Y13127778D01*
X18385000Y13080000D01*
X18099444Y13080000D01*
X18003889Y13127778D01*
X17956111Y13175556D01*
G04 #@! TO.C,U3*
X5350000Y5555000D02*
X6160000Y5555000D01*
X6254444Y5602778D01*
X6302222Y5650556D01*
X6350000Y5745000D01*
X6350000Y5936111D01*
X6302222Y6031667D01*
X6254444Y6078333D01*
X6160000Y6126111D01*
X5350000Y6126111D01*
X5350000Y6526111D02*
X5350000Y7145000D01*
X5731111Y6811667D01*
X5731111Y6955000D01*
X5778889Y7049444D01*
X5826667Y7097222D01*
X5921111Y7145000D01*
X6160000Y7145000D01*
X6254444Y7097222D01*
X6302222Y7049444D01*
X6350000Y6955000D01*
X6350000Y6669444D01*
X6302222Y6573889D01*
X6254444Y6526111D01*
%LPC*%
D14*
G04 #@! TO.C,LED1*
X9525000Y11430000D03*
D15*
X12065000Y11430000D03*
D16*
G04 #@! TO.C,J1*
X3175000Y4445000D03*
D17*
X3175000Y6985000D03*
D18*
G04 #@! TO.C,R1*
X1765000Y11430000D03*
X3315000Y11430000D03*
D19*
G04 #@! TO.C,C1*
X7175000Y11430000D03*
X5525000Y11430000D03*
D20*
G04 #@! TO.C,R3*
X21590000Y11430000D03*
D21*
X13970000Y11430000D03*
D22*
G04 #@! TO.C,U3*
X7505000Y5250000D03*
D23*
X8255000Y5250000D03*
D22*
X7505000Y7450000D03*
X9005000Y7450000D03*
X9005000Y5250000D03*
D10*
G04 #@! TD*
X13335000Y7350000D02*
X13335000Y5850000D01*
X13335000Y7278333D02*
X13478333Y7350000D01*
X13763333Y7350000D01*
X13906667Y7278333D01*
X13978333Y7206667D01*
X14050000Y7065000D01*
X14050000Y6635000D01*
X13978333Y6493333D01*
X13906667Y6421667D01*
X13763333Y6350000D01*
X13478333Y6350000D01*
X13335000Y6421667D01*
X14550000Y6350000D02*
X14550000Y7350000D01*
X14550000Y7065000D02*
X14621667Y7206667D01*
X14693333Y7278333D01*
X14835000Y7350000D01*
X14978333Y7350000D01*
X16121666Y7350000D02*
X16121666Y6350000D01*
X15478333Y7350000D02*
X15478333Y6565000D01*
X15550000Y6421667D01*
X15693333Y6350000D01*
X15906666Y6350000D01*
X16050000Y6421667D01*
X16121666Y6493333D01*
X17264999Y6421667D02*
X17121666Y6350000D01*
X16836666Y6350000D01*
X16693333Y6421667D01*
X16621666Y6565000D01*
X16621666Y7135000D01*
X16693333Y7278333D01*
X16836666Y7350000D01*
X17121666Y7350000D01*
X17264999Y7278333D01*
X17336666Y7135000D01*
X17336666Y6993333D01*
X16621666Y6850000D01*
X17836666Y6350000D02*
X17836666Y7850000D01*
X17836666Y7278333D02*
X17979999Y7350000D01*
X18264999Y7350000D01*
X18408333Y7278333D01*
X18479999Y7206667D01*
X18551666Y7065000D01*
X18551666Y6635000D01*
X18479999Y6493333D01*
X18408333Y6421667D01*
X18264999Y6350000D01*
X17979999Y6350000D01*
X17836666Y6421667D01*
X19766666Y6350000D02*
X19766666Y7135000D01*
X19694999Y7278333D01*
X19551666Y7350000D01*
X19266666Y7350000D01*
X19123333Y7278333D01*
X19766666Y6421667D02*
X19623333Y6350000D01*
X19266666Y6350000D01*
X19123333Y6421667D01*
X19051666Y6565000D01*
X19051666Y6706667D01*
X19123333Y6850000D01*
X19266666Y6921667D01*
X19623333Y6921667D01*
X19766666Y6993333D01*
X21123333Y6350000D02*
X20266666Y6350000D01*
X20694999Y6350000D02*
X20694999Y7850000D01*
X20551666Y7635000D01*
X20409999Y7493333D01*
X20266666Y7421667D01*
D24*
X1270000Y15240000D03*
X1270000Y1270000D03*
X21590000Y15240000D03*
X21590000Y1270000D03*
G04 --- BOARD END --- *
G04 #@! TF.MD5,659e046c50fe708597f0ae3457647b2d*
M02*
